<mxfile host="app.diagrams.net" modified="2024-02-19T20:22:57.073Z" agent="Mozilla/5.0 (X11; Linux x86_64) AppleWebKit/537.36 (KHTML, like Gecko) Chrome/120.0.0.0 Safari/537.36" etag="NbweinZuTyGcqOY6jd47" version="23.1.5" type="github">
  <diagram name="Page-1" id="cFSVYr4zR0H9C7fJpWOq">
    <mxGraphModel dx="814" dy="426" grid="1" gridSize="10" guides="1" tooltips="1" connect="1" arrows="1" fold="1" page="1" pageScale="1" pageWidth="827" pageHeight="1169" math="0" shadow="0">
      <root>
        <mxCell id="0" />
        <mxCell id="1" parent="0" />
        <mxCell id="oPVQxB0ANUBvH--QyVol-1" value="RoBERTA" style="rounded=1;whiteSpace=wrap;html=1;fillColor=#f8cecc;strokeColor=#b85450;" vertex="1" parent="1">
          <mxGeometry x="290" y="340" width="290" height="110" as="geometry" />
        </mxCell>
        <mxCell id="oPVQxB0ANUBvH--QyVol-17" value="" style="endArrow=classic;html=1;rounded=0;" edge="1" parent="1">
          <mxGeometry relative="1" as="geometry">
            <mxPoint x="540" y="520" as="sourcePoint" />
            <mxPoint x="540" y="450" as="targetPoint" />
          </mxGeometry>
        </mxCell>
        <mxCell id="oPVQxB0ANUBvH--QyVol-18" value="Input" style="edgeLabel;resizable=0;html=1;;align=center;verticalAlign=middle;" connectable="0" vertex="1" parent="oPVQxB0ANUBvH--QyVol-17">
          <mxGeometry relative="1" as="geometry" />
        </mxCell>
        <mxCell id="oPVQxB0ANUBvH--QyVol-24" value="" style="endArrow=classic;html=1;rounded=0;" edge="1" parent="1">
          <mxGeometry relative="1" as="geometry">
            <mxPoint x="440" y="520" as="sourcePoint" />
            <mxPoint x="440" y="450" as="targetPoint" />
          </mxGeometry>
        </mxCell>
        <mxCell id="oPVQxB0ANUBvH--QyVol-25" value="Input" style="edgeLabel;resizable=0;html=1;;align=center;verticalAlign=middle;" connectable="0" vertex="1" parent="oPVQxB0ANUBvH--QyVol-24">
          <mxGeometry relative="1" as="geometry" />
        </mxCell>
        <mxCell id="oPVQxB0ANUBvH--QyVol-26" value="" style="endArrow=classic;html=1;rounded=0;" edge="1" parent="1">
          <mxGeometry relative="1" as="geometry">
            <mxPoint x="383" y="520" as="sourcePoint" />
            <mxPoint x="383" y="450" as="targetPoint" />
          </mxGeometry>
        </mxCell>
        <mxCell id="oPVQxB0ANUBvH--QyVol-27" value="Input" style="edgeLabel;resizable=0;html=1;;align=center;verticalAlign=middle;" connectable="0" vertex="1" parent="oPVQxB0ANUBvH--QyVol-26">
          <mxGeometry relative="1" as="geometry" />
        </mxCell>
        <mxCell id="oPVQxB0ANUBvH--QyVol-28" value="" style="endArrow=classic;html=1;rounded=0;" edge="1" parent="1">
          <mxGeometry relative="1" as="geometry">
            <mxPoint x="320" y="520" as="sourcePoint" />
            <mxPoint x="320" y="450" as="targetPoint" />
          </mxGeometry>
        </mxCell>
        <mxCell id="oPVQxB0ANUBvH--QyVol-29" value="Input" style="edgeLabel;resizable=0;html=1;;align=center;verticalAlign=middle;" connectable="0" vertex="1" parent="oPVQxB0ANUBvH--QyVol-28">
          <mxGeometry relative="1" as="geometry" />
        </mxCell>
        <mxCell id="oPVQxB0ANUBvH--QyVol-32" value="" style="endArrow=classic;html=1;rounded=0;exitX=0.091;exitY=0;exitDx=0;exitDy=0;exitPerimeter=0;fillColor=#ffe6cc;strokeColor=#d79b00;" edge="1" parent="1">
          <mxGeometry width="50" height="50" relative="1" as="geometry">
            <mxPoint x="370.5" y="340" as="sourcePoint" />
            <mxPoint x="370" y="310" as="targetPoint" />
          </mxGeometry>
        </mxCell>
        <mxCell id="oPVQxB0ANUBvH--QyVol-33" value="" style="endArrow=classic;html=1;rounded=0;exitX=0.091;exitY=0;exitDx=0;exitDy=0;exitPerimeter=0;fillColor=#ffe6cc;strokeColor=#d79b00;" edge="1" parent="1">
          <mxGeometry width="50" height="50" relative="1" as="geometry">
            <mxPoint x="430.5" y="340" as="sourcePoint" />
            <mxPoint x="430" y="310" as="targetPoint" />
          </mxGeometry>
        </mxCell>
        <mxCell id="oPVQxB0ANUBvH--QyVol-34" value="" style="endArrow=classic;html=1;rounded=0;exitX=0.091;exitY=0;exitDx=0;exitDy=0;exitPerimeter=0;fillColor=#ffe6cc;strokeColor=#d79b00;" edge="1" parent="1">
          <mxGeometry width="50" height="50" relative="1" as="geometry">
            <mxPoint x="530.5" y="340" as="sourcePoint" />
            <mxPoint x="530" y="310" as="targetPoint" />
          </mxGeometry>
        </mxCell>
        <mxCell id="oPVQxB0ANUBvH--QyVol-43" value="" style="endArrow=classic;html=1;rounded=0;exitX=0.091;exitY=0;exitDx=0;exitDy=0;exitPerimeter=0;fillColor=#ffe6cc;strokeColor=#d79b00;" edge="1" parent="1">
          <mxGeometry width="50" height="50" relative="1" as="geometry">
            <mxPoint x="310.5" y="340" as="sourcePoint" />
            <mxPoint x="310" y="310" as="targetPoint" />
          </mxGeometry>
        </mxCell>
        <mxCell id="oPVQxB0ANUBvH--QyVol-52" value="LSTM CELL" style="rounded=1;whiteSpace=wrap;html=1;fillColor=#d5e8d4;strokeColor=#82b366;" vertex="1" parent="1">
          <mxGeometry x="300" y="280" width="46" height="30" as="geometry" />
        </mxCell>
        <mxCell id="oPVQxB0ANUBvH--QyVol-55" value="" style="rounded=1;whiteSpace=wrap;html=1;fillColor=#d5e8d4;strokeColor=#82b366;" vertex="1" parent="1">
          <mxGeometry x="360" y="280" width="46" height="30" as="geometry" />
        </mxCell>
        <mxCell id="oPVQxB0ANUBvH--QyVol-57" value="" style="rounded=1;whiteSpace=wrap;html=1;fillColor=#d5e8d4;strokeColor=#82b366;" vertex="1" parent="1">
          <mxGeometry x="420" y="280" width="46" height="30" as="geometry" />
        </mxCell>
        <mxCell id="oPVQxB0ANUBvH--QyVol-59" value="" style="rounded=1;whiteSpace=wrap;html=1;fillColor=#d5e8d4;strokeColor=#82b366;" vertex="1" parent="1">
          <mxGeometry x="520" y="280" width="46" height="30" as="geometry" />
        </mxCell>
        <mxCell id="oPVQxB0ANUBvH--QyVol-61" value="" style="endArrow=classic;html=1;rounded=0;" edge="1" parent="1">
          <mxGeometry width="50" height="50" relative="1" as="geometry">
            <mxPoint x="466" y="300" as="sourcePoint" />
            <mxPoint x="486" y="300" as="targetPoint" />
          </mxGeometry>
        </mxCell>
        <mxCell id="oPVQxB0ANUBvH--QyVol-62" value="" style="endArrow=none;dashed=1;html=1;dashPattern=1 3;strokeWidth=2;rounded=0;" edge="1" parent="1">
          <mxGeometry width="50" height="50" relative="1" as="geometry">
            <mxPoint x="480" y="300" as="sourcePoint" />
            <mxPoint x="510" y="300" as="targetPoint" />
          </mxGeometry>
        </mxCell>
        <mxCell id="oPVQxB0ANUBvH--QyVol-64" value="" style="endArrow=classic;html=1;rounded=0;" edge="1" parent="1">
          <mxGeometry width="50" height="50" relative="1" as="geometry">
            <mxPoint x="510" y="300" as="sourcePoint" />
            <mxPoint x="520" y="300" as="targetPoint" />
          </mxGeometry>
        </mxCell>
        <mxCell id="oPVQxB0ANUBvH--QyVol-65" value="" style="html=1;labelBackgroundColor=#ffffff;startArrow=none;startFill=0;startSize=6;endArrow=classic;endFill=1;endSize=6;jettySize=auto;orthogonalLoop=1;strokeWidth=1;dashed=1;fontSize=14;rounded=0;entryX=0.655;entryY=1;entryDx=0;entryDy=0;entryPerimeter=0;" edge="1" parent="1" target="oPVQxB0ANUBvH--QyVol-1">
          <mxGeometry width="60" height="60" relative="1" as="geometry">
            <mxPoint x="480" y="520" as="sourcePoint" />
            <mxPoint x="480" y="460" as="targetPoint" />
          </mxGeometry>
        </mxCell>
        <mxCell id="oPVQxB0ANUBvH--QyVol-66" value="" style="html=1;labelBackgroundColor=#ffffff;startArrow=none;startFill=0;startSize=6;endArrow=classic;endFill=1;endSize=6;jettySize=auto;orthogonalLoop=1;strokeWidth=1;dashed=1;fontSize=14;rounded=0;entryX=0.655;entryY=1;entryDx=0;entryDy=0;entryPerimeter=0;" edge="1" parent="1">
          <mxGeometry width="60" height="60" relative="1" as="geometry">
            <mxPoint x="510" y="520" as="sourcePoint" />
            <mxPoint x="510" y="450" as="targetPoint" />
          </mxGeometry>
        </mxCell>
        <mxCell id="oPVQxB0ANUBvH--QyVol-67" value="" style="html=1;labelBackgroundColor=#ffffff;startArrow=none;startFill=0;startSize=6;endArrow=classic;endFill=1;endSize=6;jettySize=auto;orthogonalLoop=1;strokeWidth=1;dashed=1;fontSize=14;rounded=0;fillColor=#ffe6cc;strokeColor=#d79b00;" edge="1" parent="1">
          <mxGeometry width="60" height="60" relative="1" as="geometry">
            <mxPoint x="480" y="340" as="sourcePoint" />
            <mxPoint x="480" y="310" as="targetPoint" />
          </mxGeometry>
        </mxCell>
        <mxCell id="oPVQxB0ANUBvH--QyVol-69" value="" style="html=1;labelBackgroundColor=#ffffff;startArrow=none;startFill=0;startSize=6;endArrow=classic;endFill=1;endSize=6;jettySize=auto;orthogonalLoop=1;strokeWidth=1;dashed=1;fontSize=14;rounded=0;fillColor=#ffe6cc;strokeColor=#d79b00;" edge="1" parent="1">
          <mxGeometry width="60" height="60" relative="1" as="geometry">
            <mxPoint x="500" y="340" as="sourcePoint" />
            <mxPoint x="500" y="310" as="targetPoint" />
          </mxGeometry>
        </mxCell>
        <mxCell id="oPVQxB0ANUBvH--QyVol-90" value="" style="edgeStyle=orthogonalEdgeStyle;rounded=0;orthogonalLoop=1;jettySize=auto;html=1;" edge="1" parent="1">
          <mxGeometry relative="1" as="geometry">
            <mxPoint x="360" y="290" as="sourcePoint" />
            <mxPoint x="346" y="290" as="targetPoint" />
          </mxGeometry>
        </mxCell>
        <mxCell id="oPVQxB0ANUBvH--QyVol-97" value="" style="endArrow=classic;html=1;rounded=0;entryX=1;entryY=0.5;entryDx=0;entryDy=0;" edge="1" parent="1">
          <mxGeometry width="50" height="50" relative="1" as="geometry">
            <mxPoint x="421" y="290" as="sourcePoint" />
            <mxPoint x="407" y="290.31" as="targetPoint" />
          </mxGeometry>
        </mxCell>
        <mxCell id="oPVQxB0ANUBvH--QyVol-151" value="FF and&lt;br style=&quot;border-color: var(--border-color);&quot;&gt;Softmax" style="rounded=1;whiteSpace=wrap;html=1;fillColor=#dae8fc;strokeColor=#6c8ebf;" vertex="1" parent="1">
          <mxGeometry x="530" y="180" width="50" height="30" as="geometry" />
        </mxCell>
        <mxCell id="oPVQxB0ANUBvH--QyVol-152" value="" style="endArrow=classic;html=1;rounded=0;fillColor=#f8cecc;strokeColor=#b85450;exitX=0.75;exitY=0;exitDx=0;exitDy=0;" edge="1" parent="1" source="oPVQxB0ANUBvH--QyVol-59">
          <mxGeometry width="50" height="50" relative="1" as="geometry">
            <mxPoint x="554.8" y="270" as="sourcePoint" />
            <mxPoint x="554.8" y="210" as="targetPoint" />
          </mxGeometry>
        </mxCell>
        <mxCell id="oPVQxB0ANUBvH--QyVol-154" value="LSTM output" style="edgeLabel;html=1;align=center;verticalAlign=middle;resizable=0;points=[];" vertex="1" connectable="0" parent="oPVQxB0ANUBvH--QyVol-152">
          <mxGeometry x="0.455" y="-1" relative="1" as="geometry">
            <mxPoint as="offset" />
          </mxGeometry>
        </mxCell>
        <mxCell id="oPVQxB0ANUBvH--QyVol-168" value="Bi-LSTM&lt;br&gt;Layer&amp;nbsp;" style="text;html=1;align=center;verticalAlign=middle;resizable=0;points=[];autosize=1;strokeColor=none;fillColor=none;" vertex="1" parent="1">
          <mxGeometry x="211" y="275" width="70" height="40" as="geometry" />
        </mxCell>
        <mxCell id="oPVQxB0ANUBvH--QyVol-170" value="" style="endArrow=classic;html=1;rounded=0;" edge="1" parent="1">
          <mxGeometry width="50" height="50" relative="1" as="geometry">
            <mxPoint x="554.8000000000001" y="180" as="sourcePoint" />
            <mxPoint x="554.8000000000001" y="150" as="targetPoint" />
          </mxGeometry>
        </mxCell>
        <mxCell id="oPVQxB0ANUBvH--QyVol-176" value="" style="endArrow=classic;html=1;rounded=0;exitX=1.001;exitY=0.672;exitDx=0;exitDy=0;exitPerimeter=0;" edge="1" parent="1" source="oPVQxB0ANUBvH--QyVol-52">
          <mxGeometry width="50" height="50" relative="1" as="geometry">
            <mxPoint x="350" y="300" as="sourcePoint" />
            <mxPoint x="360" y="300" as="targetPoint" />
          </mxGeometry>
        </mxCell>
        <mxCell id="oPVQxB0ANUBvH--QyVol-177" value="" style="endArrow=classic;html=1;rounded=0;exitX=1.001;exitY=0.672;exitDx=0;exitDy=0;exitPerimeter=0;" edge="1" parent="1">
          <mxGeometry width="50" height="50" relative="1" as="geometry">
            <mxPoint x="406" y="300" as="sourcePoint" />
            <mxPoint x="420" y="300" as="targetPoint" />
          </mxGeometry>
        </mxCell>
        <mxCell id="oPVQxB0ANUBvH--QyVol-179" value="" style="endArrow=classic;html=1;rounded=0;" edge="1" parent="1">
          <mxGeometry width="50" height="50" relative="1" as="geometry">
            <mxPoint x="486" y="290" as="sourcePoint" />
            <mxPoint x="466" y="290" as="targetPoint" />
          </mxGeometry>
        </mxCell>
        <mxCell id="oPVQxB0ANUBvH--QyVol-180" value="" style="endArrow=none;dashed=1;html=1;dashPattern=1 3;strokeWidth=2;rounded=0;" edge="1" parent="1">
          <mxGeometry width="50" height="50" relative="1" as="geometry">
            <mxPoint x="480" y="290" as="sourcePoint" />
            <mxPoint x="510" y="290" as="targetPoint" />
          </mxGeometry>
        </mxCell>
        <mxCell id="oPVQxB0ANUBvH--QyVol-181" value="" style="endArrow=classic;html=1;rounded=0;" edge="1" parent="1">
          <mxGeometry width="50" height="50" relative="1" as="geometry">
            <mxPoint x="520" y="290" as="sourcePoint" />
            <mxPoint x="500" y="290" as="targetPoint" />
          </mxGeometry>
        </mxCell>
      </root>
    </mxGraphModel>
  </diagram>
</mxfile>
